<?xml version="1.0" encoding="utf-8"?>
<!-- Generator: Adobe Illustrator 22.1.0, SVG Export Plug-In . SVG Version: 6.00 Build 0)  -->
<svg version="1.1" xmlns="http://www.w3.org/2000/svg" xmlns:xlink="http://www.w3.org/1999/xlink" x="0px" y="0px"
	 viewBox="0 0 500 500" style="enable-background:new 0 0 500 500;" xml:space="preserve">
<style type="text/css">
	.st0{fill:none;stroke:#000000;stroke-miterlimit:10;}
</style>
<g id="Layer_1">
</g>
<g id="Guide">
	<g>
		<g>
			<path class="st0" d="M284.6,250.1c0,0,23.2,0,27.9,0c0-0.3,0-0.4,0-0.4v-50.5l-90.3-92.8c0,0-0.4,69-0.8,139.5
				c-0.4,71-0.8,143.5-0.8,147.9c2.8-2.8,32.7-33,37.8-38.3c0-0.2,0-0.4,0-0.4l-3.2-105.4l42,66.1c0,0,0.2,0.3,0.4,0.6
				c0.2-0.2,0.3-0.3,0.3-0.3l14.3-14.5c0,0-23.8-43.7-28-51.5C284.4,250.1,284.6,250.1,284.6,250.1z M248.5,226.5
				c0,0-0.2-13.4-0.4-26.8c-0.2-13.1-0.4-26-0.4-26s0-0.9,0-1.9c0.1,0.1,0.3,0.2,0.3,0.2l50.3,44.7v18.3L248.5,226.5z"/>
		</g>
	</g>
</g>
</svg>
