<?xml version="1.0" encoding="utf-8"?>
<!-- Generator: Adobe Illustrator 22.1.0, SVG Export Plug-In . SVG Version: 6.00 Build 0)  -->
<svg version="1.1" xmlns="http://www.w3.org/2000/svg" xmlns:xlink="http://www.w3.org/1999/xlink" x="0px" y="0px"
	 viewBox="0 0 612 792" style="enable-background:new 0 0 612 792;" xml:space="preserve">
<style type="text/css">
	.st0{stroke:#FFFFFF;}
</style>
<g id="R">
	<path class="st0" d="M219.3,311.3c0,0-4.4-4.5-11.8-12c-35.5-36.3-138.9-142-138.9-142L65,634.7l63.7-61.3L124,396l68.7,110.7
		l26-24.7l-45.3-86h45.3L219.3,311.3z M196,370l-84-13.3c0,0-0.3-21.7-0.6-43.7c-0.3-22.9-0.7-46.3-0.7-46.3L196,340V370z"/>
</g>
<g id="A">
	<path class="st0" d="M219.3,311.3L218.7,482l44.7-0.7v-44.7H344v44.7c0,0,0.2,0,0.7,0c5.6,0,44.7,0,44.7,0l0.7-170.7L219.3,311.3z
		 M344,396.7l-80.7-0.7l-0.7-52.7c0,0,73.5,0.6,81.3,0.7c0.4,0,0.7,0,0.7,0L344,396.7z"/>
</g>
<g id="S">
	<polyline class="st0" points="390,310.7 542,157.3 542.7,271.3 466,318.3 466,370 547,339.3 542.3,634.7 389.3,481.3 390,429.3 
		463.3,473.3 462,421.3 390,396 390,310.7 	"/>
</g>
<g id="TL">
	<path class="st0" d="M131.9,157.3c-19.2,0-33.9,0-33.9,0l133.3,137.3l-12-137.3C219.3,157.3,167.8,157.3,131.9,157.3z"/>
</g>
<g id="TM">
	<polyline class="st0" points="241.3,157.3 254,294.7 354,294.7 368,157.3 241.3,157.3 	"/>
</g>
<g id="TR">
	<path class="st0" d="M475.8,157.3c19.2,0,33.9,0,33.9,0L376.4,294.7l12-137.3C388.4,157.3,439.9,157.3,475.8,157.3z"/>
</g>
<g id="DL">
	<path class="st0" d="M131.9,635.3c-19.2,0-33.9,0-33.9,0L231.3,498l-12,137.3C219.3,635.3,167.8,635.3,131.9,635.3z"/>
</g>
<g id="DM">
	<polyline class="st0" points="242.7,635.3 255.3,498 355.3,498 369.3,635.3 242.7,635.3 	"/>
</g>
<g id="DR">
	<path class="st0" d="M475.8,635.3c19.2,0,33.9,0,33.9,0L376.4,498l12,137.3C388.4,635.3,439.9,635.3,475.8,635.3z"/>
</g>
</svg>
